<svg xmlns="http://www.w3.org/2000/svg" id="brxe-ndlgcc" width="140" height="114" fill="none" class="brxe-svg" viewBox="0 0 140 114"><g id="Vector"><path fill="#000" fill-opacity=".4" fill-rule="evenodd" d="M140 17.8048C119.031 27.6964 108.547 39.3188 108.547 52.6725C117.484 53.6616 124.875 57.1648 130.719 63.1822C136.563 69.1996 139.484 76.1648 139.484 84.0781C139.484 92.4859 136.648 99.5748 130.977 105.345C125.305 111.115 118.172 114 109.578 114C99.9531 114 91.6172 110.249 84.5703 102.748C77.5234 95.2472 74 86.1389 74 75.423C74 43.2753 92.7342 18.1346 130.203 0L140 17.8048ZM66 17.8048C44.8593 27.6964 34.2891 39.3188 34.2891 52.6725C43.3985 53.6616 50.875 57.1648 56.7188 63.1822C62.5625 69.1996 65.4844 76.1648 65.4844 84.0781C65.4844 92.4859 62.6055 99.5748 56.8477 105.345C51.0898 111.115 43.9141 114 35.3203 114C25.6953 114 17.4024 110.249 10.4414 102.748C3.48043 95.2472 0 86.1389 0 75.423C0 43.2753 18.6483 18.1346 55.9453 0L66 17.8048Z" clip-rule="evenodd" style="mix-blend-mode:overlay"/></g></svg>